<svg width="330" height="326" viewBox="0 0 330 326" xmlns="http://www.w3.org/2000/svg">
  <defs><linearGradient id="prismShade" x1="0" y1="0" x2="1" y2="0">
    <stop offset="0%" stop-color="#FFFFFF"/><stop offset="40%" stop-color="#F5F5F5"/><stop offset="100%" stop-color="#E0E0E0"/>
  </linearGradient></defs>
  <g transform="translate(31.2,35.0)">
    <g>
      <path d="M70.5 0 L108.5 0 L118.5 -10 L80.5 -10 Z" fill="#42A5F5" opacity="0.4"/>
      <path d="M108.5 0 L125 53.9 L63.8 266 L73.8 256 L135 43.9 L118.5 -10 Z" fill="#0D47A1" opacity="0.6"/>
      <path d="M70.5 0 L108.5 0 L125 53.9 L63.8 266 L-6.2 266 Z" fill="#1565C0"/>
    </g>
    <g>
      <path d="M127.5 65 L137.5 55 L172 174 L162 184 Z" fill="#CFD8DC" opacity="0.5"/>
      <path d="M127.5 65 L137.5 55 L103.2 174 L93.2 184 Z" fill="#ECEFF1" opacity="0.4"/>
      <path d="M127.5 65 L162 184 L93.2 184 Z" fill="url(#prismShade)"/>
      <path d="M127.5 65 L162 184 L93.2 184 Z" fill="none" stroke="#B0BEC5" stroke-width="0.6" opacity="0.4"/>
      <path d="M127.5 65 L137.5 55" fill="none" stroke="#FFFFFF" stroke-width="1.5" opacity="0.7"/>
      <path d="M127.5 65 L129.5 67 L96 184 L93.2 184 Z" fill="#FFFFFF" opacity="0.6"/>
    </g>
    <g transform="translate(114.5, 0)">
      <g transform="translate(0, 0)"><path d="M75 0 L85 -10 L96 22 L86 32 Z" fill="#b71c1c" opacity="0.6"/><path d="M0 0 L75 0 L85 -10 L10 -10 Z" fill="#ef9a9a" opacity="0.3"/><path d="M0 0 L75 0 L86 32 L11 32 Z" fill="#E53935"/></g>
      <g transform="translate(11, 38)"><path d="M75 0 L85 -10 L96 22 L86 32 Z" fill="#bf360c" opacity="0.6"/><path d="M0 0 L75 0 L85 -10 L10 -10 Z" fill="#ffcc80" opacity="0.3"/><path d="M0 0 L75 0 L86 32 L11 32 Z" fill="#F57C00"/></g>
      <g transform="translate(22, 76)"><path d="M75 0 L85 -10 L96 22 L86 32 Z" fill="#f57f17" opacity="0.6"/><path d="M0 0 L75 0 L85 -10 L10 -10 Z" fill="#fff59d" opacity="0.3"/><path d="M0 0 L75 0 L86 32 L11 32 Z" fill="#FBC02D"/></g>
      <g transform="translate(33, 114)"><path d="M75 0 L85 -10 L96 22 L86 32 Z" fill="#2e7d32" opacity="0.6"/><path d="M0 0 L75 0 L85 -10 L10 -10 Z" fill="#a5d6a7" opacity="0.3"/><path d="M0 0 L75 0 L86 32 L11 32 Z" fill="#81C784"/></g>
      <g transform="translate(44, 152)"><path d="M75 0 L85 -10 L96 22 L86 32 Z" fill="#01579b" opacity="0.6"/><path d="M0 0 L75 0 L85 -10 L10 -10 Z" fill="#81d4fa" opacity="0.3"/><path d="M0 0 L75 0 L86 32 L11 32 Z" fill="#29B6F6"/></g>
      <g transform="translate(55, 190)"><path d="M75 0 L85 -10 L96 22 L86 32 Z" fill="#1a237e" opacity="0.6"/><path d="M0 0 L75 0 L85 -10 L10 -10 Z" fill="#9fa8da" opacity="0.3"/><path d="M0 0 L75 0 L86 32 L11 32 Z" fill="#5C6BC0"/></g>
      <g transform="translate(66, 228)"><path d="M75 0 L85 -10 L94 28 L84 38 Z" fill="#311b92" opacity="0.6"/><path d="M0 0 L75 0 L85 -10 L10 -10 Z" fill="#b39ddb" opacity="0.3"/><path d="M0 0 L75 0 L84 38 L9 38 Z" fill="#7E57C2"/></g>
    </g>
  </g>
</svg>