<svg xmlns="http://www.w3.org/2000/svg" viewBox="0 0 1050 650" aria-hidden="true"><circle cx="75" cy="75" r="12" fill="#fbfcfe"/><circle cx="175" cy="75" r="12" fill="#fbfcfe"/><circle cx="275" cy="75" r="12" fill="#9cc3f2"/><circle cx="375" cy="75" r="12" fill="#fbfcfe"/><circle cx="475" cy="75" r="12" fill="#fbfcfe"/><circle cx="575" cy="75" r="12" fill="#f57c00"/><circle cx="675" cy="75" r="12" fill="#fbfcfe"/><circle cx="775" cy="75" r="12" fill="#fbfcfe"/><circle cx="875" cy="75" r="12" fill="#fbfcfe"/><circle cx="975" cy="75" r="12" fill="#fbfcfe"/><circle cx="75" cy="175" r="12" fill="#fbfcfe"/><circle cx="175" cy="175" r="12" fill="#fbfcfe"/><circle cx="275" cy="175" r="12" fill="#f57c00"/><circle cx="375" cy="175" r="12" fill="#fbfcfe"/><circle cx="475" cy="175" r="12" fill="#fbfcfe"/><circle cx="575" cy="175" r="12" fill="#fbfcfe"/><circle cx="675" cy="175" r="12" fill="#fbfcfe"/><circle cx="775" cy="175" r="12" fill="#fbfcfe"/><circle cx="875" cy="175" r="12" fill="#fbfcfe"/><circle cx="975" cy="175" r="12" fill="#fbfcfe"/><circle cx="75" cy="275" r="12" fill="#fbfcfe"/><circle cx="175" cy="275" r="12" fill="#fbfcfe"/><circle cx="275" cy="275" r="12" fill="#fbfcfe"/><circle cx="375" cy="275" r="12" fill="#fbfcfe"/><circle cx="475" cy="275" r="12" fill="#fbfcfe"/><circle cx="575" cy="275" r="12" fill="#fbfcfe"/><circle cx="675" cy="275" r="12" fill="#f57c00"/><circle cx="775" cy="275" r="12" fill="#fbfcfe"/><circle cx="875" cy="275" r="12" fill="#f57c00"/><circle cx="975" cy="275" r="12" fill="#f57c00"/><circle cx="75" cy="375" r="12" fill="#fbfcfe"/><circle cx="175" cy="375" r="12" fill="#fbfcfe"/><circle cx="275" cy="375" r="12" fill="#fbfcfe"/><circle cx="375" cy="375" r="12" fill="#fbfcfe"/><circle cx="475" cy="375" r="12" fill="#fbfcfe"/><circle cx="575" cy="375" r="12" fill="#fbfcfe"/><circle cx="675" cy="375" r="12" fill="#fbfcfe"/><circle cx="775" cy="375" r="12" fill="#fbfcfe"/><circle cx="875" cy="375" r="12" fill="#fbfcfe"/><circle cx="975" cy="375" r="12" fill="#fbfcfe"/><circle cx="75" cy="475" r="12" fill="#fbfcfe"/><circle cx="175" cy="475" r="12" fill="#fbfcfe"/><circle cx="275" cy="475" r="12" fill="#fbfcfe"/><circle cx="375" cy="475" r="12" fill="#fbfcfe"/><circle cx="475" cy="475" r="12" fill="#fbfcfe"/><circle cx="575" cy="475" r="12" fill="#fbfcfe"/><circle cx="675" cy="475" r="12" fill="#fbfcfe"/><circle cx="775" cy="475" r="12" fill="#fbfcfe"/><circle cx="875" cy="475" r="12" fill="#fbfcfe"/><circle cx="975" cy="475" r="12" fill="#fbfcfe"/><circle cx="75" cy="575" r="12" fill="#fbfcfe"/><circle cx="175" cy="575" r="12" fill="#fbfcfe"/><circle cx="275" cy="575" r="12" fill="#fbfcfe"/><circle cx="375" cy="575" r="12" fill="#fbfcfe"/><circle cx="475" cy="575" r="12" fill="#fbfcfe"/><circle cx="575" cy="575" r="12" fill="#fbfcfe"/><circle cx="675" cy="575" r="12" fill="#fbfcfe"/><circle cx="775" cy="575" r="12" fill="#fbfcfe"/><circle cx="875" cy="575" r="12" fill="#f57c00"/><circle cx="975" cy="575" r="12" fill="#fbfcfe"/><circle cx="275" cy="75" r="24" fill="none" stroke="#5e9ce8" stroke-width="7"/></svg>
